<?xml version="1.0" encoding="UTF-8" standalone="no"?>
<!-- Created with Inkscape (http://www.inkscape.org/) -->

<svg
   width="200mm"
   height="200mm"
   viewBox="0 0 200 200"
   version="1.1"
   id="svg1"
   inkscape:version="1.4 (e7c3feb100, 2024-10-09)"
   sodipodi:docname="logo.svg"
   xmlns:inkscape="http://www.inkscape.org/namespaces/inkscape"
   xmlns:sodipodi="http://sodipodi.sourceforge.net/DTD/sodipodi-0.dtd"
   xmlns="http://www.w3.org/2000/svg"
   xmlns:svg="http://www.w3.org/2000/svg">
  <sodipodi:namedview
     id="namedview1"
     pagecolor="#ffffff"
     bordercolor="#000000"
     borderopacity="0.25"
     inkscape:showpageshadow="2"
     inkscape:pageopacity="0.0"
     inkscape:pagecheckerboard="true"
     inkscape:deskcolor="#d1d1d1"
     inkscape:document-units="mm"
     inkscape:zoom="0.70822811"
     inkscape:cx="372.76126"
     inkscape:cy="475.1294"
     inkscape:window-width="1920"
     inkscape:window-height="1004"
     inkscape:window-x="0"
     inkscape:window-y="0"
     inkscape:window-maximized="1"
     inkscape:current-layer="g9" />
  <defs
     id="defs1" />
  <g
     id="g9"
     inkscape:groupmode="layer">
    <g
       id="text2"
       style="font-size:38.8056px;fill:#7c916f;stroke-width:0.264583"
       transform="translate(-25.850239,94.527039)"
       aria-label="Deus&#10;eX&#10;Machina">
      <path
         style="font-weight:bold;font-family:'DejaVu Sans';-inkscape-font-specification:'DejaVu Sans Bold';fill:#800000"
         d="m 44.6324,-80.055406 v 17.261671 h 2.61483 q 4.471739,0 6.821297,-2.216922 2.368506,-2.216921 2.368506,-6.442336 0,-4.206466 -2.349558,-6.404439 -2.349558,-2.197974 -6.840245,-2.197974 z m -7.294998,-5.513881 h 7.692907 q 6.442336,0 9.587712,0.928454 3.164323,0.909506 5.419141,3.10748 1.989545,1.913752 2.955895,4.414895 0.96635,2.501142 0.96635,5.665465 0,3.20222 -0.96635,5.72231 -0.96635,2.501143 -2.955895,4.414895 -2.273766,2.197974 -5.457038,3.126428 -3.183271,0.909506 -9.549815,0.909506 h -7.692907 z"
         id="path2" />
      <path
         style="font-weight:bold;font-family:'DejaVu Sans';-inkscape-font-specification:'DejaVu Sans Bold'"
         d="m 90.429827,-67.947604 v 1.932701 H 74.570312 q 0.246325,2.387454 1.724272,3.581181 1.477948,1.193726 4.130674,1.193726 2.14113,0 4.376999,-0.625285 2.254818,-0.644234 4.623323,-1.932701 v 5.229661 q -2.406401,0.909506 -4.812803,1.364259 -2.406402,0.473702 -4.812804,0.473702 -5.760206,0 -8.962426,-2.918 -3.183272,-2.936947 -3.183272,-8.223452 0,-5.191765 3.126428,-8.166608 3.145375,-2.974843 8.640309,-2.974843 5.002284,0 7.996076,3.012739 3.012739,3.01274 3.012739,8.05292 z m -6.972881,-2.254818 q 0,-1.9327 -1.136883,-3.107479 -1.117935,-1.193727 -2.936947,-1.193727 -1.970597,0 -3.20222,1.117935 -1.231623,1.098986 -1.534792,3.183271 z m 11.880425,4.66122 v -12.960464 h 6.821299 v 2.122181 q 0,1.724273 -0.019,4.339103 -0.019,2.595882 -0.019,3.467492 0,2.557987 0.13264,3.69487 0.13263,1.117934 0.45475,1.629532 0.41686,0.663181 1.08004,1.023194 0.68213,0.360013 1.55374,0.360013 2.12218,0 3.33486,-1.629532 1.21267,-1.629532 1.21267,-4.528583 v -10.47827 h 6.7834 v 21.221812 h -6.7834 v -3.069583 q -1.53479,1.856908 -3.25906,2.747466 -1.70533,0.871611 -3.77066,0.871611 -3.675926,0 -5.608627,-2.254818 -1.913752,-2.254818 -1.913752,-6.556024 z m 44.433169,-12.297282 v 5.153868 q -2.17902,-0.909506 -4.20646,-1.364259 -2.02744,-0.454753 -3.82751,-0.454753 -1.9327,0 -2.8801,0.492649 -0.92846,0.473701 -0.92846,1.477948 0,0.814766 0.70108,1.250571 0.72003,0.435805 2.55799,0.644233 l 1.19372,0.170533 q 5.21072,0.663181 7.01078,2.179025 1.80007,1.515844 1.80007,4.75596 0,3.3917 -2.50115,5.097024 -2.50114,1.705325 -7.46553,1.705325 -2.10323,0 -4.35805,-0.341065 -2.23587,-0.322117 -4.60437,-0.985299 v -5.153868 q 2.02744,0.985298 4.14962,1.477947 2.14113,0.492649 4.3391,0.492649 1.98955,0 2.99379,-0.549493 1.00425,-0.549493 1.00425,-1.629532 0,-0.909506 -0.70108,-1.345311 -0.68213,-0.454753 -2.74746,-0.701078 l -1.19373,-0.151584 q -4.52858,-0.568442 -6.3476,-2.103233 -1.81901,-1.534792 -1.81901,-4.66122 0,-3.372752 2.31166,-5.002284 2.31166,-1.629532 7.08657,-1.629532 1.87586,0 3.9412,0.284221 2.06533,0.28422 4.49068,0.890558 z"
         id="path3" />
      <path
         style="font-weight:bold;font-size:22.5778px;font-family:'DejaVu Sans';-inkscape-font-specification:'DejaVu Sans Bold'"
         d="m 47.996538,-14.005154 v 1.124481 h -9.227353 q 0.143316,1.389064 1.003213,2.083595 0.859896,0.694532 2.403301,0.694532 1.245748,0 2.546617,-0.363802 1.311894,-0.374827 2.689933,-1.12448 v 3.0427111 q -1.400088,0.5291672 -2.800176,0.7937508 -1.400088,0.2756079 -2.800177,0.2756079 -3.351392,0 -5.214502,-1.6977447 -1.852085,-1.7087691 -1.852085,-4.7845531 0,-3.020663 1.819013,-4.751481 1.830036,-1.730818 5.027088,-1.730818 2.91042,0 4.652262,1.752867 1.752866,1.752866 1.752866,4.685334 z m -4.056949,-1.311893 q 0,-1.124481 -0.661459,-1.807988 -0.650434,-0.694532 -1.708769,-0.694532 -1.146529,0 -1.863109,0.650434 -0.716581,0.639411 -0.89297,1.852086 z"
         id="path4" />
      <path
         style="font-weight:bold;font-family:'DejaVu Sans';-inkscape-font-specification:'DejaVu Sans Bold';fill:#800000"
         d="m 68.414952,-22.236875 9.815088,14.4384117 h -7.598166 l -6.612868,-9.6635037 -6.556024,9.6635037 H 49.826919 L 59.642007,-22.236875 50.20588,-36.087897 h 7.617114 l 6.196012,9.114011 6.177063,-9.114011 h 7.655011 z"
         id="path5" />
      <path
         style="font-weight:bold;font-family:'DejaVu Sans';-inkscape-font-specification:'DejaVu Sans Bold';fill:#800000"
         d="m 37.337402,13.393494 h 9.284543 l 6.442336,15.139489 6.480232,-15.139489 h 9.265594 V 41.682927 H 61.913018 V 20.99166 L 55.39489,36.244838 H 50.771567 L 44.253439,20.99166 v 20.691267 h -6.916037 z m 47.82487,18.739618 q -2.122181,0 -3.20222,0.720025 -1.06109,0.720026 -1.06109,2.122182 0,1.288467 0.852662,2.027441 0.87161,0.720025 2.406402,0.720025 1.913752,0 3.221168,-1.364259 1.307415,-1.383207 1.307415,-3.448544 v -0.77687 z m 10.364582,-2.557987 v 12.107802 h -6.840245 v -3.145376 q -1.36426,1.932701 -3.069584,2.823259 -1.705324,0.87161 -4.149622,0.87161 -3.29696,0 -5.362297,-1.913752 -2.046389,-1.932701 -2.046389,-5.002284 0,-3.732766 2.557986,-5.475986 2.576934,-1.74322 8.071868,-1.74322 h 3.998038 v -0.530545 q 0,-1.610584 -1.269519,-2.349558 -1.269519,-0.757922 -3.960142,-0.757922 -2.179025,0 -4.054882,0.435805 -1.875857,0.435805 -3.486441,1.307415 v -5.172817 q 2.179026,-0.530545 4.376999,-0.795817 2.197974,-0.284221 4.395947,-0.284221 5.741258,0 8.280296,2.273765 2.557987,2.254818 2.557987,7.351842 z m 23.457686,-8.450828 v 5.532829 q -1.38321,-0.947402 -2.78537,-1.402155 -1.3832,-0.454753 -2.8801,-0.454753 -2.84221,0 -4.43384,1.667428 -1.57269,1.64848 -1.57269,4.623323 0,2.974843 1.57269,4.642272 1.59163,1.64848 4.43384,1.64848 1.59164,0 3.01274,-0.473702 1.44005,-0.473701 2.65273,-1.402155 v 5.551778 q -1.59164,0.587389 -3.24012,0.87161 -1.62953,0.303168 -3.27801,0.303168 -5.74126,0 -8.98137,-2.936947 -3.24012,-2.955895 -3.24012,-8.204504 0,-5.248609 3.24012,-8.185556 3.24011,-2.955895 8.98137,-2.955895 1.66743,0 3.27801,0.303169 1.62953,0.28422 3.24012,0.87161 z m 27.19045,7.636062 v 12.922568 h -6.8213 v -2.103233 -7.749751 q 0,-2.785363 -0.13264,-3.827505 -0.11369,-1.042143 -0.41685,-1.534792 -0.39791,-0.663182 -1.08004,-1.023195 -0.68213,-0.378961 -1.55374,-0.378961 -2.12218,0 -3.33486,1.64848 -1.21267,1.629532 -1.21267,4.528584 v 10.440373 h -6.7834 v -29.48316 h 6.7834 v 11.368828 q 1.53479,-1.856909 3.25906,-2.728519 1.72427,-0.890558 3.80856,-0.890558 3.67592,0 5.57072,2.254817 1.91376,2.254818 1.91376,6.556024 z m 6.29075,-8.299244 h 6.7834 v 21.221812 h -6.7834 z m 0,-8.261348 h 6.7834 v 5.532829 h -6.7834 z m 34.63703,16.560592 v 12.922568 h -6.8213 v -2.103233 -7.787647 q 0,-2.747467 -0.13264,-3.789609 -0.11369,-1.042143 -0.41685,-1.534792 -0.39791,-0.663182 -1.08004,-1.023195 -0.68213,-0.378961 -1.55374,-0.378961 -2.12218,0 -3.33486,1.64848 -1.21267,1.629532 -1.21267,4.528584 v 10.440373 h -6.7834 V 20.461115 h 6.7834 v 3.10748 q 1.53479,-1.856909 3.25906,-2.728519 1.72427,-0.890558 3.80856,-0.890558 3.67592,0 5.57072,2.254817 1.91376,2.254818 1.91376,6.556024 z m 15.80267,3.372753 q -2.12219,0 -3.20222,0.720025 -1.06109,0.720026 -1.06109,2.122182 0,1.288467 0.85266,2.027441 0.87161,0.720025 2.4064,0.720025 1.91375,0 3.22117,-1.364259 1.30741,-1.383207 1.30741,-3.448544 v -0.77687 z m 10.36458,-2.557987 v 12.107802 h -6.84025 v -3.145376 q -1.36426,1.932701 -3.06958,2.823259 -1.70532,0.87161 -4.14962,0.87161 -3.29696,0 -5.3623,-1.913752 -2.04639,-1.932701 -2.04639,-5.002284 0,-3.732766 2.55799,-5.475986 2.57693,-1.74322 8.07186,-1.74322 h 3.99804 v -0.530545 q 0,-1.610584 -1.26952,-2.349558 -1.26952,-0.757922 -3.96014,-0.757922 -2.17902,0 -4.05488,0.435805 -1.87586,0.435805 -3.48644,1.307415 v -5.172817 q 2.17902,-0.530545 4.377,-0.795817 2.19797,-0.284221 4.39594,-0.284221 5.74126,0 8.2803,2.273765 2.55799,2.254818 2.55799,7.351842 z"
         id="path6" />
    </g>
    <text
       xml:space="preserve"
       style="font-size:38.8056px;text-align:start;writing-mode:lr-tb;direction:ltr;text-anchor:start;display:none;fill:#7c916f;stroke-width:0.264583"
       x="7.9249306"
       y="37.247185"
       id="text2-5"
       inkscape:label="text backup"><tspan
         sodipodi:role="line"
         id="tspan2-3"
         style="font-style:normal;font-variant:normal;font-weight:bold;font-stretch:normal;font-size:38.8056px;font-family:'DejaVu Sans';-inkscape-font-specification:'DejaVu Sans Bold';stroke-width:0.264583"
         x="7.9249306"
         y="37.247185"><tspan
   style="fill:#800000"
   id="tspan8-5">D</tspan>eus</tspan><tspan
         sodipodi:role="line"
         style="font-style:normal;font-variant:normal;font-weight:bold;font-stretch:normal;font-size:38.8056px;font-family:'DejaVu Sans';-inkscape-font-specification:'DejaVu Sans Bold';stroke-width:0.264583"
         x="7.9249306"
         y="86.728577"
         id="tspan3-6"><tspan
           style="font-size:22.5778px"
           id="tspan5-2">e</tspan><tspan
           style="fill:#800000"
           id="tspan6-9">X</tspan></tspan><tspan
         sodipodi:role="line"
         style="font-style:normal;font-variant:normal;font-weight:bold;font-stretch:normal;font-size:38.8056px;font-family:'DejaVu Sans';-inkscape-font-specification:'DejaVu Sans Bold';fill:#800000;stroke-width:0.264583"
         x="7.9249306"
         y="136.20996"
         id="tspan4-1">Machina</tspan></text>
  </g>
  <g
     inkscape:label="Layer 1"
     inkscape:groupmode="layer"
     id="layer1">
    <g
       id="g2"
       inkscape:label="Wrench"
       inkscape:groupmode="layer"
       transform="matrix(0.3709399,-0.6571971,0.6571971,0.3709399,20.331777,104.71956)"
       inkscape:transform-center-x="3.6983019"
       inkscape:transform-center-y="69.475243">
      <rect
         style="fill:#7c916f;stroke-width:0.380042"
         id="rect1"
         width="22.58539"
         height="71.39682"
         x="96.011314"
         y="77.067902" />
      <path
         id="path1"
         style="fill:#7c916f;stroke-width:0.264583"
         d="M 114.96478,58.632851 V 77.067902 H 99.643237 v -18.4304 a 18.755674,18.755674 0 0 0 -11.09493,17.10955 18.755674,18.755674 0 0 0 18.755963,18.755444 18.755674,18.755674 0 0 0 18.75544,-18.755444 18.755674,18.755674 0 0 0 -11.09493,-17.114201 z" />
      <path
         id="path1-5"
         style="fill:#7c916f;stroke-width:0.264583"
         d="m 99.643231,166.89977 v -18.43505 h 15.321559 v 18.4304 a 18.755674,18.755674 0 0 0 11.09493,-17.10955 18.755674,18.755674 0 0 0 -18.75597,-18.75544 18.755674,18.755674 0 0 0 -18.755449,18.75544 18.755674,18.755674 0 0 0 11.09493,17.1142 z" />
    </g>
  </g>
</svg>
